<?xml version="1.0" encoding="utf-8"?><svg xmlns="http://www.w3.org/2000/svg" xmlns:xlink="http://www.w3.org/1999/xlink"><symbol viewBox="0 0 22 22" id="clock" xmlns="http://www.w3.org/2000/svg"><path d="M11 0C4.925 0 0 4.925 0 11s4.925 11 11 11 11-4.925 11-11S17.075 0 11 0zm4.755 13.092h-4.663c-.016 0-.03-.004-.046-.004s-.03.004-.046.004a.76.76 0 01-.761-.76V4.564a.76.76 0 011.521 0v7.005h3.995a.76.76 0 010 1.522z"/></symbol><symbol viewBox="0 0 30 30" id="down" xmlns="http://www.w3.org/2000/svg"><path d="M1.488 14.512c0 7.441 6.047 13.511 13.512 13.511 7.465 0 13.512-6.07 13.512-13.511C28.512 7.07 22.442 1 15 1S1.488 7.07 1.488 14.512zm25.117 0c0 6.395-5.21 11.604-11.605 11.604-6.395 0-11.605-5.209-11.605-11.604C3.395 8.116 8.605 2.907 15 2.907c6.395 0 11.605 5.21 11.605 11.605z"/><path d="M8.275 12.243a.765.765 0 00-.275.586c0 .203.092.425.275.587l6.06 5.341A.985.985 0 0015 19c.252 0 .482-.08.666-.243l6.059-5.34a.763.763 0 000-1.174 1.034 1.034 0 00-1.332 0L15 16.997l-5.393-4.754a1.034 1.034 0 00-1.332 0z"/></symbol><symbol viewBox="0 0 15 9" id="dropdown" xmlns="http://www.w3.org/2000/svg"><path d="M6.975 8.13a.75.75 0 010-1.06l6.01-6.01a.75.75 0 111.061 1.06l-6.01 6.01a.75.75 0 01-1.06 0z"/><path d="M8.029 8.14a.75.75 0 000-1.06l-6.01-6.01A.75.75 0 10.958 2.13l6.01 6.01a.75.75 0 001.061 0z"/></symbol><symbol viewBox="0 0 21 21" id="email" xmlns="http://www.w3.org/2000/svg"><g clip-path="url(#dclip0_562_355)"><path d="M19.154 2.502H1.845c-.284 0-.55.07-.79.185l9.404 9.404 2.107-2.026 7.379-7.378a1.824 1.824 0 00-.791-.185zm1.662 1.055L13.873 10.5l6.943 6.943c.115-.24.185-.507.185-.79V4.347c0-.284-.07-.55-.185-.79zm-20.631 0c-.115.24-.185.507-.185.79v12.305c0 .284.07.55.185.79L7.128 10.5.185 3.557z"/><path d="M13.002 11.37l-2.108 2.026a.613.613 0 01-.87 0L7.998 11.37l-6.943 6.943c.24.115.507.185.79.185h17.31c.283 0 .55-.07.79-.185l-6.943-6.943z"/></g><defs><clipPath id="dclip0_562_355"><path d="M0 0h21v21H0z"/></clipPath></defs></symbol><symbol viewBox="0 0 22 22" id="map" xmlns="http://www.w3.org/2000/svg"><path d="M11 0C6.608 0 3.034 3.574 3.034 7.968c0 5.452 7.13 13.456 7.434 13.794a.718.718 0 001.068 0c.303-.338 7.433-8.342 7.433-13.794C18.968 3.574 15.394 0 11.001 0zm0 11.976a4.013 4.013 0 01-4.008-4.008 4.013 4.013 0 014.009-4.01 4.013 4.013 0 014.008 4.01 4.013 4.013 0 01-4.008 4.008z"/></symbol><symbol viewBox="0 0 22 22" id="phone" xmlns="http://www.w3.org/2000/svg"><path d="M21.507 17.387l-3.398-3.399c-.677-.673-1.797-.653-2.498.048l-1.711 1.71-.338-.187c-1.08-.599-2.56-1.42-4.117-2.978C7.884 11.02 7.062 9.538 6.46 8.457a21.144 21.144 0 00-.184-.33l1.15-1.147.565-.566c.701-.701.72-1.822.045-2.498L4.64.518c-.677-.675-1.798-.655-2.5.047l-.958.963.026.026a5.58 5.58 0 00-.789 1.392 5.77 5.77 0 00-.35 1.411c-.45 3.72 1.25 7.119 5.863 11.731 6.376 6.375 11.514 5.894 11.735 5.87a5.741 5.741 0 001.416-.355 5.516 5.516 0 001.387-.786l.02.019.97-.95c.7-.702.72-1.822.046-2.5z"/></symbol><symbol viewBox="0 0 49 39" id="subtract" xmlns="http://www.w3.org/2000/svg"><path fill-rule="evenodd" clip-rule="evenodd" d="M8 1h33a7.001 7.001 0 016.93 6h1.008A8.001 8.001 0 0041 0H8a8 8 0 00-8 8v23a8 8 0 008 8h33a8.001 8.001 0 007.938-7H47.93A7.001 7.001 0 0141 38H8a7 7 0 01-7-7V8a7 7 0 017-7z"/></symbol></svg>