<?xml version="1.0" standalone="no"?>
<!DOCTYPE svg PUBLIC "-//W3C//DTD SVG 20010904//EN"
 "http://www.w3.org/TR/2001/REC-SVG-20010904/DTD/svg10.dtd">
<svg version="1.0" xmlns="http://www.w3.org/2000/svg"
 width="174.000000pt" height="174.000000pt" viewBox="0 0 174.000000 174.000000"
 preserveAspectRatio="xMidYMid meet">
<metadata>
Created by potrace 1.14, written by Peter Selinger 2001-2017
</metadata>
<g transform="translate(0.000000,174.000000) scale(0.100000,-0.100000)"
fill="#000000" stroke="none">
<path d="M900 1714 c0 -7 -20 -11 -55 -10 -30 1 -55 -2 -55 -7 0 -5 -6 -5 -13
2 -8 6 -18 7 -23 2 -14 -13 -67 -24 -60 -12 4 5 1 13 -5 17 -8 4 -9 3 -5 -4 3
-6 -3 -16 -14 -22 -11 -6 -20 -7 -20 -3 0 4 -5 2 -12 -5 -15 -15 -32 -16 -22
-1 3 6 -5 4 -18 -5 -14 -9 -28 -13 -33 -9 -4 5 -5 3 -1 -4 4 -8 -3 -15 -21
-19 -15 -4 -34 -11 -40 -17 -7 -5 -13 -6 -13 -1 0 4 -11 -3 -25 -16 -14 -13
-28 -20 -32 -17 -3 4 -12 -2 -20 -13 -8 -11 -20 -20 -27 -20 -8 0 -16 -7 -20
-15 -3 -8 -11 -14 -18 -13 -7 2 -12 -3 -10 -9 2 -12 -10 -17 -31 -14 -4 0 -6
-2 -5 -6 2 -5 -14 -25 -35 -46 -20 -21 -37 -43 -37 -48 0 -5 -7 -9 -17 -9 -9
0 -13 -3 -10 -6 5 -6 -25 -59 -43 -74 -3 -3 -11 -17 -17 -32 -7 -16 -17 -28
-23 -28 -6 0 -8 -5 -5 -11 4 -5 -1 -20 -12 -31 -12 -15 -13 -19 -3 -14 13 7
13 6 0 -6 -8 -7 -16 -26 -18 -43 -2 -16 -7 -32 -10 -35 -4 -3 -8 -12 -9 -20
-1 -8 -4 -26 -8 -40 -4 -14 -7 -32 -7 -40 0 -8 -5 -21 -11 -27 -6 -9 -6 -13 2
-13 7 0 8 -8 3 -22 -13 -37 -6 -177 14 -258 3 -14 7 -36 9 -49 2 -13 8 -28 14
-34 15 -15 14 -30 -1 -21 -7 4 -3 -4 10 -18 12 -13 22 -28 22 -33 0 -17 34
-85 43 -85 4 0 5 -4 2 -10 -3 -5 -1 -10 4 -10 6 0 11 -7 11 -15 0 -7 8 -19 18
-24 9 -6 14 -11 10 -11 -9 0 17 -34 44 -58 9 -9 14 -20 11 -26 -3 -6 -3 -8 1
-4 5 4 23 -8 42 -25 72 -66 85 -77 95 -77 5 0 12 -7 15 -15 4 -8 14 -15 25
-15 10 0 22 -7 27 -16 5 -9 11 -15 13 -15 11 4 69 -22 69 -31 0 -5 3 -7 8 -5
4 3 18 0 32 -6 28 -11 34 -13 72 -20 15 -3 33 -9 40 -13 7 -4 30 -9 53 -10 22
-1 42 -3 45 -4 3 -1 17 -1 33 0 17 1 27 -4 27 -12 0 -9 3 -10 8 -2 8 12 134
25 126 13 -6 -11 22 -5 37 8 8 5 24 9 37 8 12 -1 22 3 22 8 0 6 3 8 6 4 4 -3
21 0 39 8 19 7 36 11 39 7 3 -3 6 0 6 7 0 8 7 11 15 7 8 -3 19 3 25 12 8 15
11 15 20 2 9 -13 10 -13 10 0 0 15 57 47 73 42 5 -1 6 1 3 6 -3 5 7 15 22 23
45 24 186 154 187 174 1 6 7 9 15 7 8 -2 12 0 8 4 -8 8 22 64 34 64 4 0 8 6 8
14 0 8 7 16 15 20 8 3 12 12 9 21 -3 8 -1 15 6 15 6 0 8 5 5 10 -3 6 -1 10 5
10 6 0 9 4 5 9 -3 5 -1 12 5 16 6 4 8 10 5 15 -3 5 0 14 7 22 7 7 14 26 16 43
2 16 7 32 10 35 4 3 8 25 10 50 2 25 7 49 11 55 8 12 5 184 -4 235 -4 19 -8
47 -8 62 -1 14 -6 24 -11 21 -5 -4 -7 4 -4 15 4 12 2 20 -3 16 -7 -4 -10 9 -9
41 0 3 -11 26 -25 51 -14 25 -22 50 -19 56 4 6 2 8 -4 4 -6 -3 -14 3 -17 14
-10 30 -101 149 -149 193 -23 21 -40 42 -38 48 1 6 -2 8 -8 4 -13 -8 -42 14
-34 26 3 5 -2 6 -10 3 -9 -3 -16 -1 -16 5 0 6 -7 11 -15 11 -8 0 -15 5 -15 10
0 6 -7 10 -15 10 -8 0 -15 5 -15 10 0 5 -3 9 -7 9 -20 -3 -34 2 -28 10 3 6 -4
8 -15 6 -11 -2 -20 0 -20 6 0 5 -6 8 -12 6 -7 -1 -12 3 -11 8 1 6 -8 11 -20
11 -12 1 -55 11 -94 21 -40 11 -75 17 -78 15 -3 -3 -5 0 -5 8 0 10 -3 10 -16
-1 -9 -8 -18 -9 -22 -3 -4 5 -14 9 -22 9 -8 0 -18 4 -22 10 -5 7 -8 6 -8 -1z"/>
</g>
</svg>
